<?xml version="1.0" encoding="UTF-8"?>
<svg version="1.1" xmlns="http://www.w3.org/2000/svg" width="500" height="500">
<path d="M0 0 C165 0 330 0 500 0 C500 165 500 330 500 500 C335 500 170 500 0 500 C0 335 0 170 0 0 Z " fill="#F3F2F2" transform="translate(0,0)"/>
<path d="M0 0 C1.17175781 0.46277344 2.34351563 0.92554687 3.55078125 1.40234375 C12.37155542 5.3451816 18.72670476 10.69026459 25.46826172 17.484375 C26.9175759 18.91844297 28.42821342 20.28975448 29.94140625 21.65625 C42.42485568 33.18477632 50.68902839 48.93150073 51.56835938 66.01757812 C52.27049088 97.56507297 32.18546511 123.23032014 11.84765625 145.33984375 C-0.17139665 157.7521581 -14.91009352 167.70406289 -29.2890625 177.16796875 C-33.35783246 179.91761301 -37.19454886 182.90005385 -41 186 C-41.68835938 186.52980469 -42.37671875 187.05960938 -43.0859375 187.60546875 C-53.24160423 195.79615015 -58.23928882 206.70321193 -59.79302979 219.4618988 C-60.23471737 224.87836798 -60.07656293 230.31622829 -60.02734375 235.74609375 C-60.02037659 237.08398578 -60.01417125 238.42188197 -60.00868225 239.75978088 C-59.98449012 245.39584257 -59.94922107 251.03179252 -59.90405273 256.66772461 C-59.46005463 314.09726711 -59.46005463 314.09726711 -75.375 330.9375 C-76.55322616 331.99293984 -77.76278044 333.01437436 -79 334 C-79.66644531 334.53109375 -80.33289063 335.0621875 -81.01953125 335.609375 C-89.24259077 341.59516968 -98.87903303 344.60439217 -109 345 C-110.49660156 345.07734375 -110.49660156 345.07734375 -112.0234375 345.15625 C-132.886746 345.75092863 -149.17095601 335.49006905 -165 323 C-166.44826172 321.87078125 -166.44826172 321.87078125 -167.92578125 320.71875 C-174.22236286 315.68877453 -180.12211455 310.269738 -186.01171875 304.77734375 C-189.6016971 301.43109486 -193.27251038 298.19208656 -197 295 C-197.47405273 294.5889502 -197.94810547 294.17790039 -198.43652344 293.75439453 C-205.35431766 287.75826336 -212.26785286 281.93711914 -220 277 C-221.04542969 276.33097656 -222.09085938 275.66195313 -223.16796875 274.97265625 C-242.44891994 263.07148359 -259.52116297 263.55091367 -281.57055664 265.27416992 C-289.13041701 265.84445766 -296.66856883 266.2713666 -304.25 266.375 C-305.1356665 266.40078125 -306.02133301 266.4265625 -306.93383789 266.453125 C-314.11687556 266.47540014 -318.20219672 264.68306687 -323.4765625 259.625 C-331.17994863 250.21286276 -335.84587537 241.60084559 -335.375 229.2109375 C-335.00622299 226.05328438 -334.35296333 223.18418579 -333.5 220.125 C-330.92171321 210.79875686 -330.30060327 200.32098175 -334.484375 191.37890625 C-336.9719341 187.47446426 -340.09427598 184.24397975 -343.28125 180.90234375 C-353.90537479 169.56078525 -362.9602679 156.15658887 -367 141 C-367.391875 139.80375 -367.78375 138.6075 -368.1875 137.375 C-372.25603106 119.92858715 -367.14346333 100.03109613 -358.21875 85 C-347.1840648 68.71931692 -328.39678136 59.51017078 -309.49560547 55.46386719 C-304.69543423 54.58013069 -299.87579188 53.87275144 -295.03320312 53.26635742 C-293.2733493 53.03580981 -291.52195643 52.74232654 -289.7734375 52.4375 C-271.15465688 50.2788008 -250.7014108 51.04781617 -232.45410156 55.57348633 C-197.1583335 64.1617177 -164.13576024 54.2507542 -133.32617188 37.27636719 C-131.09689336 36.05316525 -128.85559883 34.85579221 -126.609375 33.6640625 C-117.8671929 28.97476191 -109.5719452 23.80780932 -101.3125 18.3125 C-88.06348627 9.54671648 -75.26323517 3.5979809 -59.89453125 -0.48291016 C-58.10517524 -0.97129366 -56.33287727 -1.52097585 -54.5625 -2.07421875 C-37.82190301 -6.42457126 -16.0848785 -6.43779486 0 0 Z " fill="#D61C27" transform="translate(398,74)"/>
<path d="M0 0 C2.26954014 0.00306655 4.53908218 0.00493585 6.80862427 0.00567627 C11.54387733 0.01025324 16.27895788 0.02457446 21.01416016 0.046875 C27.03746954 0.07512196 33.06064364 0.08608734 39.08401299 0.0905571 C44.88935883 0.09575166 50.69467202 0.11025358 56.5 0.125 C58.12533472 0.12782108 58.12533472 0.12782108 59.78350449 0.13069916 C97.78753656 0.21592004 97.78753656 0.21592004 105.3828125 5.328125 C106.7440625 6.194375 106.7440625 6.194375 108.1328125 7.078125 C119.81709073 18.76240323 117.49354965 39.6352046 117.52064514 54.84063721 C117.51989958 56.74874008 117.51739859 58.65684304 117.51318359 60.56494141 C117.50780695 63.45610768 117.51317275 66.34711955 117.51953125 69.23828125 C117.53524575 106.4227601 117.53524575 106.4227601 107.3828125 117.328125 C106.92648437 117.83472656 106.47015625 118.34132813 106 118.86328125 C96.01642548 127.82759031 73.70129724 124.6036748 61.25390625 124.55859375 C59.04826383 124.55739798 56.84262088 124.55694962 54.63697815 124.5572052 C50.0405859 124.5556514 45.44427275 124.54744731 40.84790039 124.53393555 C34.99593965 124.51693764 29.14406533 124.5131223 23.29208279 124.51388073 C18.74582617 124.51360708 14.19958793 124.50809498 9.65333748 124.50087929 C7.49706218 124.49772792 5.34078484 124.49573362 3.18450737 124.49498558 C-35.16195984 124.46710233 -35.16195984 124.46710233 -43.41796875 117.89453125 C-55.84341236 105.03743452 -53.96943592 82.10354197 -53.93286133 65.56640625 C-53.92970646 62.59597837 -53.95323956 59.62655543 -53.97851562 56.65625 C-54.01077832 47.13056558 -53.67134165 37.80908252 -52.28515625 28.375 C-52.1686824 27.57781555 -52.05220856 26.7806311 -51.9322052 25.95928955 C-50.55647534 17.58958377 -48.38336379 10.57411547 -41.51321411 5.16082764 C-30.02611237 -2.10859509 -12.9788214 -0.07742963 0 0 Z " fill="#FEFDFD" transform="translate(183.6171875,170.671875)"/>
<path d="M0 0 C0.226875 0.556875 0.45375 1.11375 0.6875 1.6875 C1.95177137 4.17112649 1.95177137 4.17112649 4.37890625 6.28515625 C7.4249369 9.44013584 9.07705722 12.51179504 10.9375 16.4375 C11.27813477 17.14197266 11.61876953 17.84644531 11.96972656 18.57226562 C12.99373375 20.70857304 13.99872054 22.85296285 15 25 C15.56332031 26.18722656 16.12664062 27.37445313 16.70703125 28.59765625 C22.86738061 42.18161649 26.0538386 55.00829611 25 70 C24.94070313 70.93070312 24.88140625 71.86140625 24.8203125 72.8203125 C23.10299924 86.85201843 13.48534921 102.4425507 3.125 111.6875 C0 114 0 114 -2 114 C-2 114.66 -2 115.32 -2 116 C-13.53671808 126.66602237 -31.22569657 134.17758067 -46 139 C-47.24007812 139.41636719 -48.48015625 139.83273437 -49.7578125 140.26171875 C-68.58125951 146.32778429 -88.45311805 148.49643005 -108 151 C-108 152.65 -108 154.3 -108 156 C-108.33 156 -108.66 156 -109 156 C-109.54945065 125.9239168 -109.54945065 125.9239168 -103 114 C-102.60167969 113.27296875 -102.20335937 112.5459375 -101.79296875 111.796875 C-95.10812053 100.77747102 -84.26605436 93.48683743 -73.6875 86.5625 C-64.46249275 80.41833493 -55.42904546 74.20760064 -47 67 C-46.46552246 66.54383301 -45.93104492 66.08766602 -45.38037109 65.61767578 C-32.73380307 54.68526228 -21.7510892 42.26892199 -13 28 C-12.39671875 27.06027344 -11.7934375 26.12054688 -11.171875 25.15234375 C-6.23089122 17.17158082 -3.05775851 8.82605752 0 0 Z " fill="#DAD9D9" transform="translate(446,161)"/>
<path d="M0 0 C0.91749023 0.31493408 0.91749023 0.31493408 1.85351562 0.63623047 C25.05713902 8.66421776 44.72494932 21.40866745 64.23486328 36.15917969 C70.79082404 41.03280907 77.5075823 44.74880406 85 48 C81.28849537 51.40386655 77.12200962 52.31886194 72.375 53.5625 C71.61832031 53.77068359 70.86164063 53.97886719 70.08203125 54.19335938 C67.7284488 54.82854787 65.3681937 55.42179041 63 56 C62.23840576 56.19271484 61.47681152 56.38542969 60.69213867 56.58398438 C53.34130968 58.27004442 46.0810792 58.3835671 38.5625 58.375 C37.90148285 58.37578552 37.2404657 58.37657104 36.55941772 58.37738037 C26.79408835 58.36353657 17.79402098 57.36493552 8.328125 55.0234375 C-12.89613327 49.7794601 -37.60629 50.06751458 -59 54 C-60.08410156 54.19464844 -61.16820312 54.38929688 -62.28515625 54.58984375 C-68.50793445 55.86766819 -74.42599187 57.74301362 -80.375 59.9375 C-81.02919922 60.17823242 -81.68339844 60.41896484 -82.35742188 60.66699219 C-85.69215873 61.94683768 -88.76842281 63.38215296 -91.8515625 65.19140625 C-95 67 -95 67 -97 67 C-97.86694312 43.92264116 -93.88276973 26.47587445 -78.09375 8.875 C-57.22829504 -12.98404806 -26.26776785 -9.18126957 0 0 Z " fill="#DAD9D9" transform="translate(155,75)"/>
<path d="M0 0 C20.20840247 6.14908554 36.86648775 23.183264 51.95141602 37.34326172 C57.10152205 42.15293086 62.48632127 46.61259101 68 51 C68.78375 51.65226562 69.5675 52.30453125 70.375 52.9765625 C83.89873047 64.14253733 98.40244227 73.96593832 116 77 C115.29875 77.556875 114.5975 78.11375 113.875 78.6875 C110.97356288 80.96458526 110.97356288 80.96458526 108.3125 83.5 C100.29012034 90.23381091 90.13342065 91.47418194 80.0859375 90.62109375 C61.41355308 88.16948729 46.62377542 78.65100241 35 64 C24.39577752 49.83192021 16.76486008 34.56509486 9.2421875 18.61474609 C6.90855976 13.70256977 4.46286302 8.8484934 2 4 C1.33242831 2.66711956 0.66543977 1.33394608 0 0 Z " fill="#DBD9D9" transform="translate(160,341)"/>
<path d="M0 0 C4.26079951 1.4202665 7.47711288 2.65041018 11.30859375 4.7578125 C12.29666016 5.29768799 13.28472656 5.83756348 14.30273438 6.39379883 C15.33720703 6.96509521 16.37167969 7.5363916 17.4375 8.125 C19.58182565 9.29855284 21.72635692 10.47173003 23.87109375 11.64453125 C24.91378418 12.2163916 25.95647461 12.78825195 27.03076172 13.37744141 C31.00609395 15.54978625 34.99928509 17.68735372 39 19.8125 C39.93283813 20.3087085 39.93283813 20.3087085 40.88452148 20.81494141 C42.2559448 21.54405253 43.62789661 22.27216951 45 23 C45 23.66 45 24.32 45 25 C44.21987549 25.41773682 43.43975098 25.83547363 42.63598633 26.26586914 C39.67433433 27.85185096 36.71275491 29.43796816 33.7512207 31.02416992 C32.48204294 31.70390963 31.21283825 32.38359909 29.94360352 33.06323242 C28.71045907 33.72354877 27.47737609 34.38397991 26.24435425 35.04452515 C25.01035052 35.70536809 23.7760767 36.36570691 22.54153442 37.02554321 C19.4338379 38.68810682 16.33312504 40.3618868 13.24365234 42.05810547 C12.64695236 42.38419296 12.05025238 42.71028046 11.43547058 43.04624939 C9.7947946 43.94380745 8.15647731 44.84567314 6.51831055 45.74780273 C4 47 4 47 2 47 C2 47.66 2 48.32 2 49 C1.34 49 0.68 49 0 49 C0 32.83 0 16.66 0 0 Z " fill="#D61C27" transform="translate(198,207)"/>
<path d="M0 0 C1.32 0.33 2.64 0.66 4 1 C3.43152344 1.44988281 2.86304688 1.89976562 2.27734375 2.36328125 C-8.42500514 11.27892749 -14.11491239 21.68188339 -15.79302979 35.4618988 C-16.23471737 40.87836798 -16.07656293 46.31622829 -16.02734375 51.74609375 C-16.02037659 53.08398578 -16.01417125 54.42188197 -16.00868225 55.75978088 C-15.98449012 61.39584257 -15.94922107 67.03179252 -15.90405273 72.66772461 C-15.6690532 103.02869969 -15.6690532 103.02869969 -18 117 C-18.33 117 -18.66 117 -19 117 C-19.07005494 107.38446977 -19.12308914 97.76902977 -19.15543652 88.15329838 C-19.1709754 83.68649734 -19.19199323 79.21987314 -19.22631836 74.75317383 C-19.25933855 70.42834721 -19.27694108 66.10368877 -19.28463173 61.77874565 C-19.29009986 60.14323727 -19.30077287 58.50773623 -19.31719017 56.8723011 C-19.47371849 40.6062847 -19.25882361 20.82618027 -7.26953125 8.47265625 C-5.75834589 6.90823575 -5.75834589 6.90823575 -5 4 C-3.35857037 2.9590934 -1.69287785 1.95495674 0 1 C0 0.67 0 0.34 0 0 Z " fill="#C13E48" transform="translate(354,258)"/>
<path d="M0 0 C3 1 3 1 4.1328125 2.8984375 C4.46023438 3.71570313 4.78765625 4.53296875 5.125 5.375 C5.45757812 6.16648438 5.79015625 6.95796875 6.1328125 7.7734375 C8.33292871 15.95945549 8.15815356 24.69797098 8.16796875 33.125 C8.17129715 34.15197998 8.17462555 35.17895996 8.17805481 36.23706055 C8.18308378 38.398433 8.18546439 40.55981311 8.18530273 42.72119141 C8.18747588 45.96400348 8.20563871 49.20646721 8.22460938 52.44921875 C8.25223565 62.18780689 8.13186063 71.86473558 7.17578125 81.5625 C7.10642868 82.30540283 7.03707611 83.04830566 6.96562195 83.8137207 C6.38502878 88.92373213 4.95405572 93.24311338 3 98 C2 96 2 96 2.875 92.75 C6.05501401 80.6888898 5.15760166 67.40545643 5.13037109 55.02392578 C5.12502222 52.13699054 5.1303415 49.25021172 5.13671875 46.36328125 C5.49036009 24.84409096 5.49036009 24.84409096 1 4 C0.65158654 2.67052757 0.31344042 1.33814947 0 0 Z " fill="#B82F39" transform="translate(295,182)"/>
<path d="M0 0 C13.26631007 -0.02328488 26.53261518 -0.04099676 39.79894161 -0.05181217 C45.96061366 -0.05700593 52.12227161 -0.06403904 58.28393555 -0.07543945 C64.2426778 -0.08639401 70.2014066 -0.09230317 76.16015816 -0.09487724 C78.42084528 -0.09670903 80.68153175 -0.10028546 82.94221306 -0.10573006 C93.24658525 -0.12953475 103.54444787 -0.14091756 113.83813477 0.38110352 C114.87647036 0.42681818 114.87647036 0.42681818 115.93578243 0.47345638 C119.44491181 0.68634442 120.99360709 0.99573806 124 3 C117.25537422 3.97916902 111.31295189 3.79435339 104.5625 3.0625 C93.1626008 1.99606061 81.87636145 1.86731154 70.4375 1.9375 C54.07448846 2.03621046 37.73442601 1.86970195 21.375 1.5 C20.29910614 1.47590057 19.22321228 1.45180115 18.11471558 1.42697144 C12.07632345 1.29070871 6.03811016 1.14821318 0 1 C0 0.67 0 0.34 0 0 Z " fill="#FBD9D7" transform="translate(160,171)"/>
<path d="M0 0 C0.66 0 1.32 0 2 0 C1.92998779 0.67377686 1.85997559 1.34755371 1.7878418 2.04174805 C0.85590984 12.27651979 0.81387306 22.48468925 0.81469727 32.75512695 C0.81251195 35.79587844 0.79429824 38.83626549 0.77539062 41.87695312 C0.7313645 56.98915012 1.38433165 71.47603027 6 86 C4 86 4 86 2.4453125 84.80859375 C-6.24935092 73.92851493 -2.09844053 46.09982662 -2.125 32.5 C-2.12767883 31.72454834 -2.13035767 30.94909668 -2.13311768 30.15014648 C-2.19480481 6.58441443 -2.19480481 6.58441443 0 0 Z " fill="#AF2A33" transform="translate(130,197)"/>
<path d="M0 0 C9.62270954 10.49750132 6.15978391 33.92186259 6.13037109 47.23681641 C6.12499445 50.12798268 6.13036025 53.01899455 6.13671875 55.91015625 C6.14808543 83.50638191 6.14808543 83.50638191 3 94 C2.67 94 2.34 94 2 94 C1.97274659 92.2709226 1.95349013 90.54171824 1.9375 88.8125 C1.92589844 87.84957031 1.91429687 86.88664062 1.90234375 85.89453125 C2 83 2 83 2.49603271 80.68492126 C3.04056188 77.7839037 3.14123305 75.09777856 3.16113281 72.14672852 C3.17074036 70.99104874 3.1803479 69.83536896 3.19024658 68.64466858 C3.19449646 67.40196701 3.19874634 66.15926544 3.203125 64.87890625 C3.20882507 63.58742172 3.21452515 62.29593719 3.22039795 60.96531677 C3.23088558 58.22923391 3.23674116 55.49318019 3.24023438 52.75708008 C3.24567901 49.29116635 3.26962862 45.82565346 3.29820633 42.35986423 C3.32160137 39.01205486 3.32330139 35.66429288 3.328125 32.31640625 C3.3404718 31.09192276 3.3528186 29.86743927 3.36553955 28.60585022 C3.34647154 21.08278474 2.43680392 14.26050281 0.64471436 6.94981384 C0 4 0 4 0 0 Z " fill="#FFF3EF" transform="translate(295,184)"/>
<path d="M0 0 C0.680625 0.7425 1.36125 1.485 2.0625 2.25 C14.18762542 14.37512542 35.45398394 11.17056536 51.27734375 11.31640625 C53.1840504 11.33703337 55.09075307 11.35803108 56.99745178 11.37937927 C61.96370172 11.43400654 66.92998874 11.48367197 71.89630127 11.53222656 C76.98493668 11.58288109 82.07351967 11.63833534 87.16210938 11.69335938 C97.10802792 11.80021257 107.05399239 11.90181248 117 12 C117 12.33 117 12.66 117 13 C104.98571624 13.02326898 92.97143794 13.04098881 80.95713615 13.05181217 C75.37717767 13.05700934 69.79723471 13.06404887 64.21728516 13.07543945 C58.82265192 13.08638162 53.42803353 13.09230062 48.03339005 13.09487724 C45.98513684 13.09671122 43.93688435 13.10029208 41.88863754 13.10573006 C15.8198672 13.17212792 15.8198672 13.17212792 9 12 C8.67 11.34 8.34 10.68 8 10 C5.69 10 3.38 10 1 10 C1.33 8.02 1.66 6.04 2 4 C1.34 4 0.68 4 0 4 C0 2.68 0 1.36 0 0 Z " fill="#CB595F" transform="translate(136,283)"/>
<path d="M0 0 C13.47346992 -0.11580335 26.94682162 -0.2046699 40.42068768 -0.25906086 C46.67704014 -0.28516466 52.93305236 -0.32057816 59.18920898 -0.37719727 C65.22573507 -0.43148737 71.26193371 -0.46141463 77.29868507 -0.47438622 C79.60283375 -0.48363135 81.90696431 -0.50168486 84.21097374 -0.52865028 C87.43621045 -0.56489937 90.66009071 -0.5699469 93.88549805 -0.56762695 C95.31724869 -0.59459152 95.31724869 -0.59459152 96.77792358 -0.62210083 C101.36501902 -0.58635192 103.33782214 -0.51907088 107.05012512 2.39094543 C108.67242926 4.56168986 109.9803611 6.49724996 111 9 C110.45730469 8.65066406 109.91460937 8.30132812 109.35546875 7.94140625 C108.64003906 7.48636719 107.92460937 7.03132812 107.1875 6.5625 C106.47980469 6.11003906 105.77210938 5.65757812 105.04296875 5.19140625 C101.01978641 2.84519092 97.08319989 2.70021387 92.55102539 2.45727539 C91.80066293 2.41545419 91.05030046 2.37363298 90.27719975 2.33054447 C81.2502424 1.86216322 72.22071785 1.77056185 63.18359375 1.68359375 C61.34700631 1.66295413 59.51042287 1.64195623 57.67384338 1.62062073 C52.9016143 1.56612187 48.12934769 1.51640263 43.35705566 1.46777344 C38.46261359 1.41702202 33.56822422 1.36161957 28.67382812 1.30664062 C19.11593072 1.19994577 9.55798703 1.09831413 0 1 C0 0.67 0 0.34 0 0 Z " fill="#CB555D" transform="translate(181,170)"/>
<path d="M0 0 C0.33 0 0.66 0 1 0 C0.99777939 0.75897583 0.99555878 1.51795166 0.99327087 2.29992676 C0.97317116 9.47891254 0.9579767 16.65788452 0.94818783 23.83689117 C0.94298599 27.52701526 0.93593776 31.21711594 0.92456055 34.90722656 C0.91363525 38.4733859 0.90770287 42.03952284 0.90512276 45.60569763 C0.90239642 47.6173883 0.89459988 49.62907005 0.88670349 51.64074707 C0.88632448 57.86646831 1.06813425 63.84458991 2 70 C2.0612491 71.99917047 2.0874994 74.00004774 2.0625 76 C2.05347656 76.94875 2.04445312 77.8975 2.03515625 78.875 C2.02355469 79.57625 2.01195312 80.2775 2 81 C-4.55783052 71.16325422 -2.30889518 53.41599824 -2.26074219 42.01855469 C-2.25001549 39.00435275 -2.26070289 35.99074656 -2.2734375 32.9765625 C-2.28029714 21.82004951 -1.75663427 11.02798187 0 0 Z " fill="#F2C2C3" transform="translate(132,194)"/>
<path d="M0 0 C0.66 0.33 1.32 0.66 2 1 C2 1.66 2 2.32 2 3 C1.34 3.66 0.68 4.32 0 5 C-0.268125 5.804375 -0.53625 6.60875 -0.8125 7.4375 C-2.31116927 10.67147053 -3.80669207 11.52017437 -7 13 C-7.99 13 -8.98 13 -10 13 C-10 13.66 -10 14.32 -10 15 C-10.99 15.33 -11.98 15.66 -13 16 C-15.29013653 19.4352048 -15.17842973 20.985331 -15 25 C-16.32 25.33 -17.64 25.66 -19 26 C-19 26.99 -19 27.98 -19 29 C-19.99 29 -20.98 29 -22 29 C-18.58538687 15.98178745 -10.53269894 7.84143947 0 0 Z " fill="#C92A37" transform="translate(57,142)"/>
<path d="M0 0 C6 2 6 2 8 4 C5.03 3.505 5.03 3.505 2 3 C2.33 16.86 2.66 30.72 3 45 C4.32 44.34 5.64 43.68 7 43 C7.99 43.33 8.98 43.66 10 44 C4.25 47 4.25 47 2 47 C2 47.66 2 48.32 2 49 C1.34 49 0.68 49 0 49 C0 32.83 0 16.66 0 0 Z " fill="#BA3740" transform="translate(198,207)"/>
<path d="M0 0 C0.66 0.33 1.32 0.66 2 1 C0.5022698 3.9954604 -2.04303887 4.52151943 -5 6 C-8.98295378 8.75342198 -8.98295378 8.75342198 -11 13 C-11.969375 13.474375 -12.93875 13.94875 -13.9375 14.4375 C-17.10211637 16.05210019 -17.87470028 16.73663082 -19 20 C-19.66 18.68 -20.32 17.36 -21 16 C-21.721875 16.474375 -22.44375 16.94875 -23.1875 17.4375 C-25.89475226 18.94152903 -27.96194275 19.56599182 -31 20 C-26.31169686 16.03297427 -21.20783764 12.76904054 -16.0625 9.4375 C-15.18142578 8.86064453 -14.30035156 8.28378906 -13.39257812 7.68945312 C-4.295184 1.78125784 -4.295184 1.78125784 0 0 Z " fill="#CE212D" transform="translate(314,82)"/>
<path d="M0 0 C-0.48137788 4.3324009 -1.70118184 6.18630216 -5 9 C-5.99 9.66 -6.98 10.32 -8 11 C-8 11.99 -8 12.98 -8 14 C-8.66 14 -9.32 14 -10 14 C-10 15.32 -10 16.64 -10 18 C-10.99 18.33 -11.98 18.66 -13 19 C-13.99 24.94 -14.98 30.88 -16 37 C-16.33 37 -16.66 37 -17 37 C-18.906485 27.63335631 -17.13957485 20.04001279 -12.08984375 11.93359375 C-3.5885486 0 -3.5885486 0 0 0 Z " fill="#EDC2C1" transform="translate(356,261)"/>
<path d="M0 0 C3.93734763 3.3748694 6.02831144 7.2906977 8 12 C8.37640625 12.89332031 8.7528125 13.78664063 9.140625 14.70703125 C11.71981487 21.7816401 12.36156047 28.13380537 12.375 35.625 C12.37741699 36.94129395 12.37741699 36.94129395 12.37988281 38.28417969 C12.26914414 44.59628378 12.26914414 44.59628378 10 48 C9.67 40.08 9.34 32.16 9 24 C8.34 24 7.68 24 7 24 C6.93941406 23.32453125 6.87882812 22.6490625 6.81640625 21.953125 C6.73261719 21.06109375 6.64882813 20.1690625 6.5625 19.25 C6.48128906 18.36828125 6.40007812 17.4865625 6.31640625 16.578125 C6.03761535 14.30649548 5.61209423 12.20148177 5 10 C4.34 10 3.68 10 3 10 C2.01 6.7 1.02 3.4 0 0 Z " fill="#C64350" transform="translate(437,108)"/>
<path d="M0 0 C0.66 0 1.32 0 2 0 C1.48179083 5.16614684 -0.36894224 9.07546959 -2.9375 13.5 C-3.33356445 14.19198486 -3.72962891 14.88396973 -4.13769531 15.59692383 C-6.96511839 20.44432957 -10.00168968 25.11238032 -13.25 29.6875 C-13.84929321 30.53248047 -13.84929321 30.53248047 -14.46069336 31.39453125 C-17.04897671 34.9419736 -19.83773129 37.97790277 -23 41 C-22.35494404 37.51669784 -21.01782732 34.90567134 -19 32 C-18.34 32 -17.68 32 -17 32 C-16.87625 31.071875 -16.7525 30.14375 -16.625 29.1875 C-16 26 -16 26 -14 23 C-13.34 22.71125 -12.68 22.4225 -12 22.125 C-9.28559559 20.59814752 -8.91416653 18.89486068 -8 16 C-7.34 16 -6.68 16 -6 16 C-5.34 13.69 -4.68 11.38 -4 9 C-3.34 9 -2.68 9 -2 9 C-2.04125 8.071875 -2.0825 7.14375 -2.125 6.1875 C-2 3 -2 3 0 0 Z " fill="#B72F39" transform="translate(442,167)"/>
<path d="M0 0 C1.24072266 0.00322266 2.48144531 0.00644531 3.75976562 0.00976562 C5.03658203 0.01814453 6.31339844 0.02652344 7.62890625 0.03515625 C9.58473633 0.04192383 9.58473633 0.04192383 11.58007812 0.04882812 C14.78390177 0.06056374 17.98762988 0.07698262 21.19140625 0.09765625 C21.19140625 0.42765625 21.19140625 0.75765625 21.19140625 1.09765625 C12.28140625 1.09765625 3.37140625 1.09765625 -5.80859375 1.09765625 C-5.80859375 1.75765625 -5.80859375 2.41765625 -5.80859375 3.09765625 C-8.77859375 3.09765625 -11.74859375 3.09765625 -14.80859375 3.09765625 C-14.80859375 3.75765625 -14.80859375 4.41765625 -14.80859375 5.09765625 C-18.81297596 7.91794695 -22.93195914 7.10629096 -27.55859375 6.72265625 C-28.35136719 6.6659375 -29.14414063 6.60921875 -29.9609375 6.55078125 C-31.9109111 6.4098193 -33.85988046 6.25508505 -35.80859375 6.09765625 C-32.95331733 4.19413864 -31.84182386 3.7600406 -28.60546875 3.28125 C-27.78949219 3.15685547 -26.97351563 3.03246094 -26.1328125 2.90429688 C-25.28332031 2.78248047 -24.43382813 2.66066406 -23.55859375 2.53515625 C-22.30755859 2.34663086 -22.30755859 2.34663086 -21.03125 2.15429688 C-18.62483149 1.79352298 -16.21727286 1.44300097 -13.80859375 1.09765625 C-12.69637451 0.92057129 -11.58415527 0.74348633 -10.43823242 0.56103516 C-6.90915149 0.11049398 -3.55515065 -0.01638318 0 0 Z " fill="#C3343D" transform="translate(118.80859375,125.90234375)"/>
<path d="M0 0 C2.31 0 4.62 0 7 0 C3.28849537 3.40386655 -0.87799038 4.31886194 -5.625 5.5625 C-6.38167969 5.77068359 -7.13835937 5.97886719 -7.91796875 6.19335938 C-10.27147272 6.82852669 -12.63237646 7.4198378 -15 8 C-16.12172607 8.29342285 -16.12172607 8.29342285 -17.26611328 8.59277344 C-24.99731503 10.41320644 -32.73597261 10.22443364 -40.625 10.125 C-42.02473314 10.11494398 -43.42447331 10.10582279 -44.82421875 10.09765625 C-48.21632925 10.07426238 -51.6080706 10.04148173 -55 10 C-55 9.67 -55 9.34 -55 9 C-42.625 8.505 -42.625 8.505 -30 8 C-30 7.67 -30 7.34 -30 7 C-25.38 7 -20.76 7 -16 7 C-16 6.34 -16 5.68 -16 5 C-12.0186217 3.6728739 -8.14954773 3.93084087 -4 4 C-4 3.34 -4 2.68 -4 2 C-2.68 2 -1.36 2 0 2 C0 1.34 0 0.68 0 0 Z " fill="#F4BDC0" transform="translate(233,123)"/>
<path d="M0 0 C0.66 0 1.32 0 2 0 C1.76023437 1.7015625 1.76023437 1.7015625 1.515625 3.4375 C0.95350584 7.9663466 0.78112892 12.439613 0.75 17 C0.729375 17.75539063 0.70875 18.51078125 0.6875 19.2890625 C0.65942453 23.37404373 1.0491975 26.56487087 2.578125 30.375 C4 34 4 34 3 37 C-3.15119055 27.77321418 -4.45820114 19.46598985 -2.31640625 8.5 C-1.61180032 5.64112042 -0.85295037 2.81778249 0 0 Z " fill="#C43947" transform="translate(66,288)"/>
<path d="M0 0 C11.76832751 5.81111897 23.40722047 11.84655871 35 18 C35 18.66 35 19.32 35 20 C32.87767021 21.17176518 30.75242209 22.33754785 28.625 23.5 C28.02171875 23.83386719 27.4184375 24.16773438 26.796875 24.51171875 C22.2265625 27 22.2265625 27 20 27 C20 26.34 20 25.68 20 25 C21.32 24.67 22.64 24.34 24 24 C24 23.34 24 22.68 24 22 C26.64 21.34 29.28 20.68 32 20 C32 19.34 32 18.68 32 18 C31.34 17.9175 30.68 17.835 30 17.75 C26.00960837 16.75240209 22.61450357 14.92833317 19 13 C19 12.34 19 11.68 19 11 C18.14728516 10.82791016 18.14728516 10.82791016 17.27734375 10.65234375 C14.7631919 9.93216646 12.81837138 8.880054 10.5625 7.5625 C8.03085764 6.10690991 5.74318919 4.90369594 3 3.875 C2.34 3.58625 1.68 3.2975 1 3 C0.67 2.01 0.34 1.02 0 0 Z " fill="#B7333A" transform="translate(208,212)"/>
<path d="M0 0 C1.98 0 3.96 0 6 0 C6 0.66 6 1.32 6 2 C10.70973649 3.76615118 15.03083364 4.48594831 20 5 C20.22893102 8.03333605 20.35414522 10.97366814 20 14 C18.125 16.0625 18.125 16.0625 16 17 C15.34 17 14.68 17 14 17 C13.67 17.66 13.34 18.32 13 19 C10.69 19 8.38 19 6 19 C14.75 12 14.75 12 19 12 C19 11.34 19 10.68 19 10 C17.72769531 9.61714844 17.72769531 9.61714844 16.4296875 9.2265625 C12.76247907 7.91505516 9.53425443 6.25356877 6.125 4.375 C4.97257813 3.74335938 3.82015625 3.11171875 2.6328125 2.4609375 C1.32957031 1.73777344 1.32957031 1.73777344 0 1 C0 0.67 0 0.34 0 0 Z " fill="#F8DCD9" transform="translate(224,220)"/>
<path d="M0 0 C0.33 0 0.66 0 1 0 C1.0249869 6.00992541 1.04299384 12.01981963 1.05493164 18.02978516 C1.05991594 20.06820198 1.06670579 22.10661532 1.07543945 24.14501953 C1.20550557 55.31498144 1.20550557 55.31498144 -2 66 C-2.33 66 -2.66 66 -3 66 C-3.20348231 60.3590182 -3.09015562 55.02322604 -2.03125 49.46875 C-0.47341877 39.76858969 -0.53415405 29.99122341 -0.375 20.1875 C-0.33673094 18.22329167 -0.29767436 16.25909852 -0.2578125 14.29492188 C-0.16280247 9.53007414 -0.07842554 4.76514837 0 0 Z " fill="#FCC0C2" transform="translate(300,212)"/>
<path d="M0 0 C1.32 0.33 2.64 0.66 4 1 C3.43152344 1.44988281 2.86304688 1.89976562 2.27734375 2.36328125 C-9.26117913 11.97550649 -14.6316919 23.22227257 -16 38 C-16.33 38 -16.66 38 -17 38 C-17.64260553 28.93212191 -16.75112204 20.09431858 -11.2109375 12.5703125 C-10.00813765 11.21901884 -8.77022664 9.89754901 -7.48828125 8.62109375 C-5.75955064 6.95971327 -5.75955064 6.95971327 -5 4 C-3.35857037 2.9590934 -1.69287785 1.95495674 0 1 C0 0.67 0 0.34 0 0 Z " fill="#BB323B" transform="translate(354,258)"/>
<path d="M0 0 C1.50065654 0.1168544 3.0005103 0.24402048 4.5 0.375 C5.75296875 0.47941406 5.75296875 0.47941406 7.03125 0.5859375 C10 1 10 1 13.671875 2.01367188 C17.91379685 3.08781256 21.86109414 3.25935157 26.21875 3.1953125 C26.96209595 3.1924826 27.70544189 3.18965271 28.47131348 3.18673706 C30.81438217 3.17566157 33.15704947 3.15058228 35.5 3.125 C37.10155693 3.11495381 38.70311993 3.10583085 40.3046875 3.09765625 C44.2032765 3.0757639 48.10157052 3.04132386 52 3 C52 3.66 52 4.32 52 5 C47.27181364 5.02508834 42.54366769 5.04303969 37.81542969 5.05493164 C36.21353478 5.0598995 34.61164426 5.06667608 33.00976562 5.07543945 C25.01709303 5.11800695 17.02513077 5.0986319 9.0390625 4.74609375 C7.94029785 4.70025146 6.8415332 4.65440918 5.70947266 4.60717773 C3 4 3 4 1.12255859 1.95336914 C0.75211426 1.30875732 0.38166992 0.66414551 0 0 Z " fill="#C03842" transform="translate(160,129)"/>
<path d="M0 0 C0.33 0 0.66 0 1 0 C1.02686553 1.97909398 1.04633375 3.95828971 1.0625 5.9375 C1.07410156 7.03964844 1.08570313 8.14179688 1.09765625 9.27734375 C1 12 1 12 0 13 C-0.23287008 14.68183948 -0.41264166 16.3712416 -0.5625 18.0625 C-0.64628906 18.98160156 -0.73007812 19.90070313 -0.81640625 20.84765625 C-0.87699219 21.55792969 -0.93757813 22.26820313 -1 23 C-0.34 23 0.32 23 1 23 C2.5056904 28.80766296 3.21824777 33.9981863 3 40 C-2.17987982 34.82012018 -2.22046501 25.36136279 -2.3125 18.4375 C-2.18895507 12.13020607 -1.42961969 6.139706 0 0 Z " fill="#C02D39" transform="translate(31,181)"/>
<path d="M0 0 C4.28669858 -0.02487594 8.57335795 -0.04294275 12.86010742 -0.05493164 C14.31584404 -0.05993417 15.77157571 -0.0667383 17.22729492 -0.07543945 C19.32992788 -0.087685 21.43249391 -0.09326923 23.53515625 -0.09765625 C24.797229 -0.10289307 26.05930176 -0.10812988 27.35961914 -0.11352539 C30.97671982 -0.00072599 34.43079551 0.41887318 38 1 C38 1.33 38 1.66 38 2 C30.51684822 3.00519949 23.16970956 3.15034617 15.625 3.125 C13.86349609 3.13080078 13.86349609 3.13080078 12.06640625 3.13671875 C10.38224609 3.13478516 10.38224609 3.13478516 8.6640625 3.1328125 C7.64779785 3.13168457 6.6315332 3.13055664 5.58447266 3.12939453 C3 3 3 3 0 2 C0 1.34 0 0.68 0 0 Z " fill="#F4D5D1" transform="translate(83,339)"/>
<path d="M0 0 C4.48052165 1.34348475 8.28288819 3.13141124 12.3125 5.5 C13.88451172 6.41265625 13.88451172 6.41265625 15.48828125 7.34375 C18 9 18 9 19 11 C18.37351563 10.91621094 17.74703125 10.83242188 17.1015625 10.74609375 C16.28429687 10.64425781 15.46703125 10.54242188 14.625 10.4375 C13.40683594 10.28087891 13.40683594 10.28087891 12.1640625 10.12109375 C9.95100814 9.81762672 9.95100814 9.81762672 8 11 C8 10.34 8 9.68 8 9 C7.01 9 6.02 9 5 9 C3.35 6.03 1.7 3.06 0 0 Z " fill="#E9CCCE" transform="translate(160,341)"/>
<path d="M0 0 C0 0.33 0 0.66 0 1 C-1.00417969 1.10957031 -2.00835937 1.21914062 -3.04296875 1.33203125 C-14.7776153 2.66794011 -26.09306282 4.40340162 -36.9765625 9.23046875 C-39 10 -39 10 -42 10 C-42 9.34 -42 8.68 -42 8 C-40.02 7.67 -38.04 7.34 -36 7 C-36 6.34 -36 5.68 -36 5 C-23.89989254 1.44600669 -12.6633049 -0.21105508 0 0 Z " fill="#F0BBBD" transform="translate(112,126)"/>
<path d="M0 0 C0.33 0 0.66 0 1 0 C1.27036084 5.27203646 0.26305335 9.92523206 -1 15 C-1.66 15 -2.32 15 -3 15 C-2.67 16.65 -2.34 18.3 -2 20 C-2.78375 20.391875 -3.5675 20.78375 -4.375 21.1875 C-7.35156418 23.24274669 -7.98823563 24.59679258 -9 28 C-9.66 27.67 -10.32 27.34 -11 27 C-9.70388584 22.81398536 -8.10121496 19.06261469 -6.0625 15.1875 C-3.51753066 10.20334244 -1.6064822 5.35494067 0 0 Z " fill="#EFC2C3" transform="translate(446,161)"/>
<path d="M0 0 C0.66 0 1.32 0 2 0 C1.86722656 0.91652344 1.73445312 1.83304688 1.59765625 2.77734375 C-0.52163207 18.77416467 -0.64732095 34.88858896 -1 51 C-1.33 51 -1.66 51 -2 51 C-2.02500545 46.09277707 -2.04300225 41.18559248 -2.05493164 36.27832031 C-2.05991292 34.61425123 -2.06670037 32.95018641 -2.07543945 31.28613281 C-2.20166667 6.605 -2.20166667 6.605 0 0 Z " fill="#C21E29" transform="translate(130,197)"/>
<path d="M0 0 C0.66 0.33 1.32 0.66 2 1 C1.855625 1.76441406 1.71125 2.52882812 1.5625 3.31640625 C-0.33778187 14.28261619 -0.76064858 24.98538246 1 36 C-4.05117557 28.42323665 -4.59993915 20.78188824 -3 12 C-2.10563607 7.96833851 -1.10414713 3.97909624 0 0 Z " fill="#F8D8D9" transform="translate(30,178)"/>
<path d="M0 0 C0 0.33 0 0.66 0 1 C-0.556875 1.06316406 -1.11375 1.12632812 -1.6875 1.19140625 C-8.34315772 2.25945943 -12.68703498 4.78171921 -17 10 C-18.38713769 12.66033193 -19.14162012 15.09104596 -20 18 C-20.64309283 19.34486201 -21.30426084 20.68160353 -22 22 C-21.52224079 16.45547862 -20.86383815 11.26260185 -19 6 C-18.34 5.67 -17.68 5.34 -17 5 C-16.34 4.01 -15.68 3.02 -15 2 C-14.34 2.33 -13.68 2.66 -13 3 C-13 2.34 -13 1.68 -13 1 C-8.59085217 -0.10228696 -4.51617599 -0.07654536 0 0 Z " fill="#BB2E36" transform="translate(154,172)"/>
<path d="M0 0 C4.88009472 3.54326026 9.52816611 7.24670116 14.03515625 11.25390625 C16.98782373 13.87784733 19.99650845 16.43451764 23 19 C22.34 19.66 21.68 20.32 21 21 C21 20.34 21 19.68 21 19 C20.4225 18.731875 19.845 18.46375 19.25 18.1875 C17 17 17 17 14.875 15.375 C13.11872074 13.80287878 13.11872074 13.80287878 11 14 C11 12.68 11 11.36 11 10 C10.01 10 9.02 10 8 10 C7.67 9.34 7.34 8.68 7 8 C4.47266765 7.34444881 4.47266765 7.34444881 2 7 C1.34 4.69 0.68 2.38 0 0 Z " fill="#F2C8C8" transform="translate(189,359)"/>
<path d="M0 0 C2.31 0.66 4.62 1.32 7 2 C7 2.66 7 3.32 7 4 C8.32 3.67 9.64 3.34 11 3 C10.67 4.65 10.34 6.3 10 8 C10.71542969 8.24492187 11.43085938 8.48984375 12.16796875 8.7421875 C15.34583121 10.15359676 17.63646999 11.91281519 20.3125 14.125 C21.19550781 14.84945313 22.07851562 15.57390625 22.98828125 16.3203125 C23.65214844 16.87460937 24.31601563 17.42890625 25 18 C24.67 18.66 24.34 19.32 24 20 C17.87635756 15.48424133 11.91206195 10.78877018 6 6 C5.3503125 5.47664063 4.700625 4.95328125 4.03125 4.4140625 C2.66695903 3.30074959 1.32953496 2.15459615 0 1 C0 0.67 0 0.34 0 0 Z " fill="#C13841" transform="translate(216,382)"/>
<path d="M0 0 C0.66 0.33 1.32 0.66 2 1 C-9.68309859 14.05633803 -9.68309859 14.05633803 -16 19 C-16.33 19 -16.66 19 -17 19 C-17 16.69 -17 14.38 -17 12 C-14.69 12 -12.38 12 -10 12 C-10 11.01 -10 10.02 -10 9 C-9.071875 8.87625 -9.071875 8.87625 -8.125 8.75 C-5.85609195 8.21402157 -5.85609195 8.21402157 -5 6.1875 C-4.67 5.465625 -4.34 4.74375 -4 4 C-2.70529025 2.62913085 -1.37849103 1.28659163 0 0 Z " fill="#BB3640" transform="translate(417,208)"/>
<path d="M0 0 C4.33327584 -0.05848483 8.66644885 -0.09375916 13 -0.125 C14.22074219 -0.14175781 15.44148438 -0.15851563 16.69921875 -0.17578125 C23.16978669 -0.21075729 28.81846413 0.03736236 35 2 C35 2.33 35 2.66 35 3 C31.04146699 2.85930243 27.08322891 2.71148952 23.125 2.5625 C21.46210938 2.50352539 21.46210938 2.50352539 19.765625 2.44335938 C13.1434301 2.19015781 6.58403955 1.75898051 0 1 C0 0.67 0 0.34 0 0 Z " fill="#C3283B" transform="translate(356,70)"/>
<path d="M0 0 C5.28 0.33 10.56 0.66 16 1 C16 1.66 16 2.32 16 3 C19.3 3 22.6 3 26 3 C26.33 4.32 26.66 5.64 27 7 C27.66 7 28.32 7 29 7 C29 7.66 29 8.32 29 9 C28.17371094 8.72285156 27.34742188 8.44570313 26.49609375 8.16015625 C22.69144279 6.89760727 18.88171701 5.655169 15.0625 4.4375 C14.04639648 4.10588867 14.04639648 4.10588867 13.00976562 3.76757812 C8.67156877 2.39083492 4.52262885 1.52479005 0 1 C0 0.67 0 0.34 0 0 Z " fill="#C22D39" transform="translate(141,336)"/>
<path d="M0 0 C0.66 0.33 1.32 0.66 2 1 C-2.14277064 6.19625871 -6.05087331 11.00726762 -13 12 C-15.67281007 12.07209892 -18.3249733 12.04458378 -21 12 C-21 11.67 -21 11.34 -21 11 C-19.2984375 10.6596875 -19.2984375 10.6596875 -17.5625 10.3125 C-10.83461538 8.62754133 -4.53758989 5.32673595 0 0 Z " fill="#F9D2D4" transform="translate(293,282)"/>
<path d="M0 0 C2.22013951 2.22013951 2.71598135 3.6952805 3.75 6.625 C5.73003581 11.78509333 8.46684323 15.78376625 12 20 C11.34 20.33 10.68 20.66 10 21 C10 20.34 10 19.68 10 19 C8.68 19.33 7.36 19.66 6 20 C5.34 16.7 4.68 13.4 4 10 C2.68 9.67 1.36 9.34 0 9 C0 6.03 0 3.06 0 0 Z " fill="#F6D5D7" transform="translate(63,313)"/>
<path d="M0 0 C2.70343211 2.70343211 3.15970399 5.71161401 4.0625 9.3125 C4.23587891 9.97701172 4.40925781 10.64152344 4.58789062 11.32617188 C5.5016468 14.86566419 6.32591118 18.4071761 7 22 C5 22 5 22 3.44921875 20.859375 C-0.62467031 15.63249847 -0.29244751 6.43384514 0 0 Z " fill="#BF2531" transform="translate(129,261)"/>
<path d="M0 0 C-2.6889153 2.6889153 -5.77032017 3.38568223 -9.3125 4.5 C-13.59883759 5.87196063 -17.84381299 7.26356597 -22 9 C-21.75 6.625 -21.75 6.625 -21 4 C-17.67973894 1.31825068 -14.08802656 2 -10 2 C-6.36380129 0.61478144 -3.9402016 -0.22515438 0 0 Z " fill="#F8E2E4" transform="translate(335,74)"/>
<path d="M0 0 C0 0.99 0 1.98 0 3 C0.99 3.33 1.98 3.66 3 4 C3 4.66 3 5.32 3 6 C5.31 6.33 7.62 6.66 10 7 C8.453125 8.2109375 8.453125 8.2109375 6 9 C3.39484836 7.99212459 1.17152464 6.96372907 -1.25 5.625 C-1.8996875 5.28210938 -2.549375 4.93921875 -3.21875 4.5859375 C-4.82010131 3.73816328 -6.41111444 2.87091321 -8 2 C-5.14066998 -0.85933002 -3.8625627 -1.2875209 0 0 Z " fill="#C82D35" transform="translate(258,407)"/>
<path d="M0 0 C0.33 1.32 0.66 2.64 1 4 C0.34 4 -0.32 4 -1 4 C-2.03039555 8.53374042 -2.17766075 9.64467851 0 14 C-3.63 13.34 -7.26 12.68 -11 12 C-10.29875 11.505 -9.5975 11.01 -8.875 10.5 C-5.29763247 7.38924563 -2.72367352 3.85619756 0 0 Z " fill="#C3363E" transform="translate(296,280)"/>
<path d="M0 0 C0.763125 0.20625 1.52625 0.4125 2.3125 0.625 C-0.51734027 3.5996228 -3.44815023 6.02497658 -6.8125 8.375 C-8.11574219 9.29539063 -8.11574219 9.29539063 -9.4453125 10.234375 C-11.6875 11.625 -11.6875 11.625 -13.6875 11.625 C-13.3575 10.635 -13.0275 9.645 -12.6875 8.625 C-11.6975 8.625 -10.7075 8.625 -9.6875 8.625 C-9.3575 7.635 -9.0275 6.645 -8.6875 5.625 C-7.6975 5.625 -6.7075 5.625 -5.6875 5.625 C-5.6875 4.305 -5.6875 2.985 -5.6875 1.625 C-2.6875 -0.375 -2.6875 -0.375 0 0 Z " fill="#BD3139" transform="translate(389.6875,233.375)"/>
<path d="M0 0 C0.66 0.33 1.32 0.66 2 1 C1.67 1.99 1.34 2.98 1 4 C-1.0625 4.6875 -1.0625 4.6875 -3 5 C-3 5.66 -3 6.32 -3 7 C-6.63 7.66 -10.26 8.32 -14 9 C-11.18480992 6.18480992 -8.89028634 4.64420502 -5.4375 2.75 C-4.46683594 2.20859375 -3.49617187 1.6671875 -2.49609375 1.109375 C-1.67238281 0.74328125 -0.84867188 0.3771875 0 0 Z " fill="#F8D4D1" transform="translate(228,239)"/>
<path d="M0 0 C3 1 3 1 4.125 3.1875 C6.01471155 9.26157284 6.12777435 15.07853612 6.0625 21.375 C6.05798828 22.20644531 6.05347656 23.03789062 6.04882812 23.89453125 C6.03713164 25.92971897 6.01919935 27.96486923 6 30 C5.67 30 5.34 30 5 30 C4.94392578 28.44152344 4.94392578 28.44152344 4.88671875 26.8515625 C4.53029201 18.78159625 3.73228131 11.66226716 1 4 C0.65158654 2.67052757 0.31344042 1.33814947 0 0 Z " fill="#B83B42" transform="translate(295,182)"/>
<path d="M0 0 C0.99552499 3.09718886 0.89921243 4.90271275 0 8 C0 8.99 0 9.98 0 11 C-1.32 11.33 -2.64 11.66 -4 12 C-4 12.99 -4 13.98 -4 15 C-4.99 15 -5.98 15 -7 15 C-5.34292168 9.35086937 -3.52237988 4.73699363 0 0 Z " fill="#C53643" transform="translate(42,156)"/>
<path d="M0 0 C5.94 0.99 5.94 0.99 12 2 C9.38485683 4.12038635 6.80362384 6.13091744 4 8 C2.4375 6.75 2.4375 6.75 1 5 C1.3125 2.8125 1.3125 2.8125 2 1 C1.34 0.67 0.68 0.34 0 0 Z " fill="#E5CBCB" transform="translate(264,416)"/>
<path d="M0 0 C-7.32207836 3.90631972 -12.71548698 5.14041547 -21 5 C-17.70212712 2.80141808 -14.86193643 1.91684826 -11.0625 0.8125 C-9.83660156 0.44769531 -8.61070312 0.08289063 -7.34765625 -0.29296875 C-4.29101247 -0.93853762 -2.84569773 -1.1197357 0 0 Z " fill="#CA3C49" transform="translate(351,72)"/>
<path d="M0 0 C0.33 0 0.66 0 1 0 C1.3690205 16.8929385 1.3690205 16.8929385 -1 24 C-1.33 24 -1.66 24 -2 24 C-2.29599372 15.7943963 -1.43794854 8.07562173 0 0 Z " fill="#F7CCCE" transform="translate(299,254)"/>
<path d="M0 0 C5.15137665 5.61968362 5.25711129 12.80088376 5 20 C2.26850337 17.26850337 2.14942146 14.88759316 1.375 11.125 C1.11460937 9.89007813 0.85421875 8.65515625 0.5859375 7.3828125 C0 4 0 4 0 0 Z " fill="#F5C7C5" transform="translate(295,184)"/>
<path d="M0 0 C-0.33 0.99 -0.66 1.98 -1 3 C-6.61 3 -12.22 3 -18 3 C-18 2.67 -18 2.34 -18 2 C-15.75256955 1.46818825 -13.50192898 0.94992874 -11.25 0.4375 C-9.99703125 0.14746094 -8.7440625 -0.14257812 -7.453125 -0.44140625 C-4.40526252 -0.93444283 -2.82358172 -1.07666879 0 0 Z " fill="#C2333E" transform="translate(230,129)"/>
<path d="M0 0 C0.66 0.33 1.32 0.66 2 1 C2 1.99 2 2.98 2 4 C-3.61 4 -9.22 4 -15 4 C-15 3.34 -15 2.68 -15 2 C-10.05 2 -5.1 2 0 2 C0 1.34 0 0.68 0 0 Z " fill="#EEC7C5" transform="translate(375,66)"/>
<path d="M0 0 C6.93 0.495 6.93 0.495 14 1 C14 1.66 14 2.32 14 3 C14.66 3.33 15.32 3.66 16 4 C9.79029227 4.33266291 5.71735105 3.45029331 0 1 C0 0.67 0 0.34 0 0 Z " fill="#F6CCC9" transform="translate(144,290)"/>
<path d="M0 0 C0.33 0 0.66 0 1 0 C1.02686553 1.97909398 1.04633375 3.95828971 1.0625 5.9375 C1.07410156 7.03964844 1.08570313 8.14179688 1.09765625 9.27734375 C1 12 1 12 0 13 C-0.23481693 15.18292774 -0.41363323 17.37203174 -0.5625 19.5625 C-0.64628906 20.76003906 -0.73007812 21.95757812 -0.81640625 23.19140625 C-0.87699219 24.11824219 -0.93757813 25.04507813 -1 26 C-1.33 26 -1.66 26 -2 26 C-2.21767642 17.03898756 -2.04404545 8.7784452 0 0 Z " fill="#C54B56" transform="translate(31,181)"/>
<path d="M0 0 C-1 3 -1 3 -2.85546875 3.94921875 C-7.37075277 5.37868052 -11.19984755 6.3692425 -16 6 C-13.50063756 3.50063756 -11.35191992 2.96276247 -8 1.875 C-6.9275 1.52179688 -5.855 1.16859375 -4.75 0.8046875 C-2 0 -2 0 0 0 Z " fill="#BF313B" transform="translate(83,132)"/>
<path d="M0 0 C0.66 0.33 1.32 0.66 2 1 C-1.13605376 5.51591742 -4.1268348 7.6536612 -9 10 C-9.66 9.67 -10.32 9.34 -11 9 C-3.70159453 2.66514806 -3.70159453 2.66514806 0 0 Z " fill="#F1C6C2" transform="translate(367,251)"/>
<path d="M0 0 C3.83520308 3.28731693 6.32465344 7.25147171 8 12 C7.67 12.66 7.34 13.32 7 14 C6.34 14 5.68 14 5 14 C5 12.68 5 11.36 5 10 C4.34 10 3.68 10 3 10 C2.01 6.7 1.02 3.4 0 0 Z " fill="#C63642" transform="translate(437,108)"/>
<path d="M0 0 C0.66 0.66 1.32 1.32 2 2 C0.92492371 3.29854721 -0.16043736 4.58858361 -1.25 5.875 C-1.85328125 6.59429687 -2.4565625 7.31359375 -3.078125 8.0546875 C-4.97087634 9.97052118 -6.53657727 10.96449045 -9 12 C-8.34 10.68 -7.68 9.36 -7 8 C-6.34 8 -5.68 8 -5 8 C-4.67 6.68 -4.34 5.36 -4 4 C-3.34 4 -2.68 4 -2 4 C-2 3.34 -2 2.68 -2 2 C-1.34 2 -0.68 2 0 2 C0 1.34 0 0.68 0 0 Z " fill="#C22836" transform="translate(325,397)"/>
<path d="M0 0 C2.64 0.33 5.28 0.66 8 1 C8.33 2.65 8.66 4.3 9 6 C4.58763974 6 3.21615077 3.9302707 0 1 C0 0.67 0 0.34 0 0 Z " fill="#C62833" transform="translate(183,353)"/>
<path d="M0 0 C0.33 0 0.66 0 1 0 C0.67 2.31 0.34 4.62 0 7 C-1.32 7.33 -2.64 7.66 -4 8 C-4 8.66 -4 9.32 -4 10 C-4.99 9.67 -5.98 9.34 -7 9 C-5.85793642 7.49712782 -4.71125043 5.99776716 -3.5625 4.5 C-2.92441406 3.6646875 -2.28632813 2.829375 -1.62890625 1.96875 C-0.82259766 0.99421875 -0.82259766 0.99421875 0 0 Z " fill="#EFC7C6" transform="translate(427,198)"/>
<path d="M0 0 C0 0.33 0 0.66 0 1 C-0.59167969 1.10957031 -1.18335938 1.21914062 -1.79296875 1.33203125 C-6.48483841 2.27346676 -9.92359989 3.4059272 -14 6 C-14.66 5.67 -15.32 5.34 -16 5 C-15.67 4.01 -15.34 3.02 -15 2 C-14.34 2.33 -13.68 2.66 -13 3 C-13 2.34 -13 1.68 -13 1 C-8.59085217 -0.10228696 -4.51617599 -0.07654536 0 0 Z " fill="#C3343B" transform="translate(154,172)"/>
<path d="M0 0 C1.55373847 3.10747694 0.58528628 5.74226527 0.0625 9.125 C-0.22947266 11.04699219 -0.22947266 11.04699219 -0.52734375 13.0078125 C-0.68332031 13.99523437 -0.83929688 14.98265625 -1 16 C-1.33 16 -1.66 16 -2 16 C-3.52940159 5.35619163 -3.52940159 5.35619163 -1 1 C-0.67 0.67 -0.34 0.34 0 0 Z " fill="#ECCAC8" transform="translate(341,282)"/>
<path d="M0 0 C0.33 0 0.66 0 1 0 C1.0825 0.763125 1.165 1.52625 1.25 2.3125 C2.17022164 5.60996088 3.30367706 6.03903786 6 8 C7.25 10.6875 7.25 10.6875 8 13 C4.18688695 11.5019913 2.27516449 9.37351976 0 6 C-0.8125 3.25 -0.8125 3.25 -1 1 C-0.67 0.67 -0.34 0.34 0 0 Z " fill="#FCD4D6" transform="translate(136,277)"/>
<path d="M0 0 C3.80635497 3.20760251 7.54563567 6.40746109 11 10 C10.67 10.66 10.34 11.32 10 12 C7.37098712 10.47793991 5.15634036 9.15634036 3 7 C3 6.01 3 5.02 3 4 C2.34 4 1.68 4 1 4 C0.67 2.68 0.34 1.36 0 0 Z " fill="#C23341" transform="translate(425,94)"/>
<path d="M0 0 C0.33 0.66 0.66 1.32 1 2 C1.66 2.33 2.32 2.66 3 3 C2.01 3.66 1.02 4.32 0 5 C0.66 5.66 1.32 6.32 2 7 C-2.71906188 7 -4.27037031 5.71245796 -8 3 C-5.50907189 1.75453595 -4.58919267 2.2232422 -2 3 C-1.34 2.01 -0.68 1.02 0 0 Z " fill="#C52C34" transform="translate(249,400)"/>
<path d="M0 0 C0.33 0 0.66 0 1 0 C1.02712066 1.43739513 1.04645067 2.87493863 1.0625 4.3125 C1.07410156 5.11300781 1.08570313 5.91351563 1.09765625 6.73828125 C1 9 1 9 0 12 C-0.66 12 -1.32 12 -2 12 C-2 13.65 -2 15.3 -2 17 C-2.99 17.33 -3.98 17.66 -5 18 C-3.23208191 11.55972696 -3.23208191 11.55972696 -1.9375 8.4375 C-0.86395921 5.64629396 -0.41231616 2.95493249 0 0 Z " fill="#F2C7C8" transform="translate(334,378)"/>
<path d="M0 0 C0.99 0.33 1.98 0.66 3 1 C4.22101368 4.66304104 4.4324356 8.1813738 4 12 C3.34 13.32 2.68 14.64 2 16 C1.34 10.72 0.68 5.44 0 0 Z " fill="#C4283A" transform="translate(65,268)"/>
<path d="M0 0 C0.66 0 1.32 0 2 0 C0.40956621 5.08938811 -2.7446951 8.87456643 -6 13 C-6.99 12.67 -7.98 12.34 -9 12 C-8.34 11.01 -7.68 10.02 -7 9 C-6.34 9 -5.68 9 -5 9 C-3.79371992 6.66785852 -2.8345262 4.50357861 -2 2 C-1.34 2 -0.68 2 0 2 C0 1.34 0 0.68 0 0 Z " fill="#D4D3D4" transform="translate(459,256)"/>
<path d="M0 0 C0.99 0.33 1.98 0.66 3 1 C3 1.99 3 2.98 3 4 C3.66 4.33 4.32 4.66 5 5 C5.59355614 7.64860427 5.74209269 10.29197322 6 13 C2.84297684 9.09130466 0 5.1385061 0 0 Z " fill="#C32533" transform="translate(34,221)"/>
<path d="M0 0 C0.66 0.33 1.32 0.66 2 1 C0.46059853 4.07880294 -1.90280828 4.62347035 -5 6 C-7.31987995 6.75628086 -9.63629824 7.38543754 -12 8 C-8.71268307 4.16479692 -4.74852829 1.67534656 0 0 Z " fill="#C94650" transform="translate(314,82)"/>
<path d="M0 0 C1.98 0 3.96 0 6 0 C6 0.66 6 1.32 6 2 C7.3921875 2.4021875 7.3921875 2.4021875 8.8125 2.8125 C11.76240366 3.91148371 13.05615186 4.62418561 15 7 C14.01 7.495 14.01 7.495 13 8 C10.71741367 6.92325298 8.5643566 5.80453884 6.375 4.5625 C5.76398438 4.22412109 5.15296875 3.88574219 4.5234375 3.53710938 C3.011647 2.69853808 1.50529601 1.85017423 0 1 C0 0.67 0 0.34 0 0 Z " fill="#F6CBCC" transform="translate(224,220)"/>
<path d="M0 0 C0.66 0.33 1.32 0.66 2 1 C2 1.66 2 2.32 2 3 C0.33333333 4.66666667 -1.33333333 6.33333333 -3 8 C-4.32 7.34 -5.64 6.68 -7 6 C-4.69 4.02 -2.38 2.04 0 0 Z " fill="#CB3141" transform="translate(57,142)"/>
<path d="M0 0 C1.32 0 2.64 0 4 0 C4 0.66 4 1.32 4 2 C2.02 2.33 0.04 2.66 -2 3 C-2.33 3.99 -2.66 4.98 -3 6 C-5.5625 7.1875 -5.5625 7.1875 -8 8 C-7.75 6.125 -7.75 6.125 -7 4 C-4.41847698 2.27898465 -3.15081975 2 0 2 C0 1.34 0 0.68 0 0 Z " fill="#E9CFCE" transform="translate(72,131)"/>
<path d="M0 0 C-3.63 2.31 -7.26 4.62 -11 7 C-11 5.68 -11 4.36 -11 3 C-9.73581754 2.30034557 -8.46334598 1.61565237 -7.1875 0.9375 C-6.47980469 0.55464844 -5.77210938 0.17179688 -5.04296875 -0.22265625 C-3 -1 -3 -1 0 0 Z " fill="#BC2E38" transform="translate(376,246)"/>
<path d="M0 0 C0.33 0.99 0.66 1.98 1 3 C-2.3 6.3 -5.6 9.6 -9 13 C-9.66 12.67 -10.32 12.34 -11 12 C-10.54109375 11.55269531 -10.0821875 11.10539063 -9.609375 10.64453125 C-6.16447701 7.25029352 -2.92744915 3.86423288 0 0 Z " fill="#F9C3C5" transform="translate(419,208)"/>
<path d="M0 0 C2.5 2.3125 2.5 2.3125 5 5 C5 5.99 5 6.98 5 8 C5.66 8.33 6.32 8.66 7 9 C5.02 9.33 3.04 9.66 1 10 C1.33 8.02 1.66 6.04 2 4 C1.34 4 0.68 4 0 4 C0 2.68 0 1.36 0 0 Z " fill="#C42736" transform="translate(136,283)"/>
<path d="M0 0 C0.33 0 0.66 0 1 0 C1 4.62 1 9.24 1 14 C0.01 14.33 -0.98 14.66 -2 15 C-1.38487182 9.99109914 -0.7282448 4.99367864 0 0 Z " fill="#CA1D2D" transform="translate(69,273)"/>
<path d="M0 0 C1.32 0.33 2.64 0.66 4 1 C6.38965954 5.36730881 7.22853597 7.08585612 6 12 C4.02 8.04 2.04 4.08 0 0 Z " fill="#F9DAD7" transform="translate(438,108)"/>
<path d="M0 0 C3.90853901 1.30284634 6.46045282 2.7079944 9 6 C9.25 8.75 9.25 8.75 9 11 C8.443125 10.29875 7.88625 9.5975 7.3125 8.875 C4.90875268 5.88655739 2.46189568 2.94059762 0 0 Z " fill="#F4DAD8" transform="translate(429,97)"/>
<path d="M0 0 C4.59306496 1.4859916 7.43569245 3.85014682 11 7 C10.67 7.66 10.34 8.32 10 9 C8.70391053 8.06862408 7.41328368 7.1296434 6.125 6.1875 C5.40570313 5.66542969 4.68640625 5.14335937 3.9453125 4.60546875 C2 3 2 3 0 0 Z " fill="#B7323A" transform="translate(230,393)"/>
<path d="M0 0 C-0.60990891 3.55780196 -1.5783681 6.6828589 -3 10 C-3.33 10 -3.66 10 -4 10 C-4 7.03 -4 4.06 -4 1 C-2 0 -2 0 0 0 Z " fill="#C42F3C" transform="translate(333,384)"/>
<path d="M0 0 C3.23238414 0.07696153 5.33227795 0.37438655 7.734375 2.625 C9.21851673 4.37770071 10.63844334 6.15079362 12 8 C11.67 8.66 11.34 9.32 11 10 C9.16375669 8.52444734 7.3310715 7.04446569 5.5 5.5625 C4.4790625 4.73878906 3.458125 3.91507812 2.40625 3.06640625 C1.6121875 2.38449219 0.818125 1.70257813 0 1 C0 0.67 0 0.34 0 0 Z " fill="#BA3640" transform="translate(191,360)"/>
<path d="M0 0 C2.64 0.33 5.28 0.66 8 1 C6.35 2.65 4.7 4.3 3 6 C2.67 5.01 2.34 4.02 2 3 C1.34 3 0.68 3 0 3 C0 2.01 0 1.02 0 0 Z " fill="#C5242F" transform="translate(356,252)"/>
<path d="M0 0 C0.66 0.66 1.32 1.32 2 2 C1.43410156 2.40992188 0.86820312 2.81984375 0.28515625 3.2421875 C-0.44832031 3.78101563 -1.18179687 4.31984375 -1.9375 4.875 C-2.66839844 5.40867188 -3.39929688 5.94234375 -4.15234375 6.4921875 C-6.11098235 7.88012104 -6.11098235 7.88012104 -7 10 C-7.99 9.67 -8.98 9.34 -10 9 C-6.7 6.03 -3.4 3.06 0 0 Z " fill="#F5C5C3" transform="translate(407,221)"/>
<path d="M0 0 C-1.62170379 1.00533667 -3.24747237 2.00411907 -4.875 3 C-6.23238281 3.8353125 -6.23238281 3.8353125 -7.6171875 4.6875 C-10 6 -10 6 -12 6 C-12 5.34 -12 4.68 -12 4 C-10.68 3.67 -9.36 3.34 -8 3 C-8 2.34 -8 1.68 -8 1 C-2.25 -1.125 -2.25 -1.125 0 0 Z " fill="#B92A32" transform="translate(240,233)"/>
<path d="M0 0 C2.475 0.495 2.475 0.495 5 1 C4.75 2.875 4.75 2.875 4 5 C1.9375 6.25 1.9375 6.25 0 7 C0 4.69 0 2.38 0 0 Z " fill="#C42833" transform="translate(400,220)"/>
<path d="M0 0 C1.43088528 2.86177057 0.59991697 4.93375773 0 8 C-0.66 8 -1.32 8 -2 8 C-2.33 9.65 -2.66 11.3 -3 13 C-4.10096216 9.73381227 -3.9223497 7.98446051 -2.625 4.8125 C-2.34914062 4.11769531 -2.07328125 3.42289063 -1.7890625 2.70703125 C-1 1 -1 1 0 0 Z " fill="#F2C1C2" transform="translate(137,181)"/>
<path d="M0 0 C2.31 0 4.62 0 7 0 C3.35883227 3.33773709 -0.28607242 3.97864902 -5 5 C-4.67 4.01 -4.34 3.02 -4 2 C-2.68 2 -1.36 2 0 2 C0 1.34 0 0.68 0 0 Z " fill="#EEB9BB" transform="translate(233,123)"/>
<path d="M0 0 C1.29608947 0.93137592 2.58671632 1.8703566 3.875 2.8125 C4.59429687 3.33457031 5.31359375 3.85664062 6.0546875 4.39453125 C8 6 8 6 10 9 C9.34 9.66 8.68 10.32 8 11 C7.4225 10.05125 6.845 9.1025 6.25 8.125 C4.17183449 5.23865902 3.24531925 4.15904259 0 3 C0 2.01 0 1.02 0 0 Z " fill="#C2313E" transform="translate(412,82)"/>
<path d="M0 0 C2.45823172 3.68734758 3.01242616 6.69699971 4 11 C2 11 2 11 0.3125 10 C-1.84668986 6.70980593 -0.68121085 3.77762382 0 0 Z " fill="#BD3C46" transform="translate(132,272)"/>
<path d="M0 0 C0.66 0.33 1.32 0.66 2 1 C-0.19412227 4.46440358 -2.02694801 5.9074107 -6 7 C-6.99 6.67 -7.98 6.34 -9 6 C-6.03 4.02 -3.06 2.04 0 0 Z " fill="#BF3943" transform="translate(292,95)"/>
<path d="M0 0 C1.32 0 2.64 0 4 0 C4 0.66 4 1.32 4 2 C6.31 2.33 8.62 2.66 11 3 C9.4375 4.1875 9.4375 4.1875 7 5 C3.25 3.625 3.25 3.625 0 2 C0 1.34 0 0.68 0 0 Z " fill="#C03540" transform="translate(257,411)"/>
<path d="M0 0 C7.57142857 4.14285714 7.57142857 4.14285714 10 7 C7.69 6.67 5.38 6.34 3 6 C3 5.01 3 4.02 3 3 C2.01 2.67 1.02 2.34 0 2 C0 1.34 0 0.68 0 0 Z " fill="#F3C2C4" transform="translate(234,398)"/>
<path d="M0 0 C1.29608947 0.93137592 2.58671632 1.8703566 3.875 2.8125 C4.59429687 3.33457031 5.31359375 3.85664063 6.0546875 4.39453125 C8 6 8 6 10 9 C6 9 6 9 4.296875 7.5390625 C3.78640625 6.90742188 3.2759375 6.27578125 2.75 5.625 C2.22921875 4.99851562 1.7084375 4.37203125 1.171875 3.7265625 C0 2 0 2 0 0 Z " fill="#F6CAC8" transform="translate(212,379)"/>
<path d="M0 0 C0.33 0.66 0.66 1.32 1 2 C-2.49087093 6.0042343 -4.64951939 7.62671065 -10 8 C-6.97727468 4.74475735 -3.74281699 2.38179263 0 0 Z " fill="#F2C1C3" transform="translate(388,237)"/>
<path d="M0 0 C0.66 0 1.32 0 2 0 C1.67 4.29 1.34 8.58 1 13 C0.67 13 0.34 13 0 13 C-0.19551338 11.39679026 -0.38111983 9.79237014 -0.5625 8.1875 C-0.71912109 6.84751953 -0.71912109 6.84751953 -0.87890625 5.48046875 C-1 3 -1 3 0 0 Z " fill="#BA323A" transform="translate(130,197)"/>
<path d="M0 0 C0.66 0 1.32 0 2 0 C2.75 1.75 2.75 1.75 3 4 C1.0625 6.25 1.0625 6.25 -1 8 C-1.625 5.6875 -1.625 5.6875 -2 3 C-1.34 2.01 -0.68 1.02 0 0 Z " fill="#C52634" transform="translate(428,190)"/>
<path d="M0 0 C0.66 0.33 1.32 0.66 2 1 C1.67 1.99 1.34 2.98 1 4 C-2.73567172 4.76411467 -5.34811918 5.07174763 -9 4 C-7.54618103 3.30300448 -6.08677047 2.61766134 -4.625 1.9375 C-3.40683594 1.36322266 -3.40683594 1.36322266 -2.1640625 0.77734375 C-1.44992188 0.52082031 -0.73578125 0.26429687 0 0 Z " fill="#CB3C44" transform="translate(249,119)"/>
<path d="M0 0 C-1.98 1.32 -3.96 2.64 -6 4 C-8 3 -8 3 -9 0 C-3.375 -1.125 -3.375 -1.125 0 0 Z " fill="#C83240" transform="translate(316,410)"/>
<path d="M0 0 C0.33 0.99 0.66 1.98 1 3 C-3.95 4.485 -3.95 4.485 -9 6 C-3.2 0 -3.2 0 0 0 Z " fill="#EFC2C4" transform="translate(378,245)"/>
<path d="M0 0 C2.97 0.495 2.97 0.495 6 1 C6.66 2.98 7.32 4.96 8 7 C2.25 3.375 2.25 3.375 0 0 Z " fill="#BD3645" transform="translate(203,370)"/>
<path d="M0 0 C3 0 3 0 4.38671875 1.3125 C5.59114583 2.875 6.79557292 4.4375 8 6 C7.34 6.66 6.68 7.32 6 8 C4.02 5.36 2.04 2.72 0 0 Z " fill="#C23142" transform="translate(48,246)"/>
<path d="M0 0 C-4.95 2.475 -4.95 2.475 -10 5 C-9.67 4.01 -9.34 3.02 -9 2 C-8.34 2 -7.68 2 -7 2 C-7 1.34 -7 0.68 -7 0 C-3.98968256 -0.93423645 -3.13349732 -1.04449911 0 0 Z " fill="#BB2E39" transform="translate(228,240)"/>
<path d="M0 0 C0 0.66 0 1.32 0 2 C-3.21451269 3.60725635 -6.43612536 3.05748185 -10 3 C-6.1865669 0.45771127 -4.5252563 -0.11908569 0 0 Z " fill="#C63343" transform="translate(340,74)"/>
<path d="M0 0 C1.65 0 3.3 0 5 0 C-0.14285714 4.42857143 -0.14285714 4.42857143 -4 5 C-3.67 4.01 -3.34 3.02 -3 2 C-2.01 2 -1.02 2 0 2 C0 1.34 0 0.68 0 0 Z " fill="#B9313B" transform="translate(212,245)"/>
<path d="M0 0 C3.96 1.98 3.96 1.98 8 4 C7.01 4.66 6.02 5.32 5 6 C4.38125 5.649375 3.7625 5.29875 3.125 4.9375 C2.073125 4.4734375 2.073125 4.4734375 1 4 C0.01 4.495 0.01 4.495 -1 5 C-0.67 3.35 -0.34 1.7 0 0 Z " fill="#C82D3A" transform="translate(404,77)"/>
<path d="M0 0 C1.65 1.65 3.3 3.3 5 5 C4.01 5 3.02 5 2 5 C1.67 5.99 1.34 6.98 1 8 C0.34 7.34 -0.32 6.68 -1 6 C-0.625 4 -0.625 4 0 2 C0 1.34 0 0.68 0 0 Z " fill="#FBE5E7" transform="translate(53,253)"/>
<path d="M0 0 C-0.57344937 2.86724686 -0.8614515 3.8614515 -3 6 C-3.99 4.68 -4.98 3.36 -6 2 C-2.25 0 -2.25 0 0 0 Z " fill="#CD2B39" transform="translate(61,252)"/>
<path d="M0 0 C0.66 0.33 1.32 0.66 2 1 C0.8125 3.5 0.8125 3.5 -1 6 C-3.6875 6.3125 -3.6875 6.3125 -6 6 C-4 4 -2 2 0 0 Z " fill="#F0C1BE" transform="translate(395,231)"/>
<path d="M0 0 C3.375 0.25 3.375 0.25 7 1 C8.4375 3.0625 8.4375 3.0625 9 5 C5.22454612 3.90931332 2.52956528 3.0916909 0 0 Z " fill="#F8CECC" transform="translate(206,210)"/>
<path d="M0 0 C0.33 0 0.66 0 1 0 C1.125 6.75 1.125 6.75 0 9 C-0.66 9 -1.32 9 -2 9 C-1.125 2.25 -1.125 2.25 0 0 Z " fill="#C74852" transform="translate(34,171)"/>
<path d="M0 0 C2 1 2 1 3 3 C1.02 3.66 -0.96 4.32 -3 5 C-3.66 4.34 -4.32 3.68 -5 3 C-2.625 1.4375 -2.625 1.4375 0 0 Z " fill="#CC3D4A" transform="translate(265,111)"/>
<path d="M0 0 C0.66 0.33 1.32 0.66 2 1 C0.35 2.98 -1.3 4.96 -3 7 C-3.33 6.01 -3.66 5.02 -4 4 C-2.68 2.68 -1.36 1.36 0 0 Z " fill="#FEE0E6" transform="translate(293,282)"/>
<path d="M0 0 C0.66 0.33 1.32 0.66 2 1 C2 1.99 2 2.98 2 4 C0.02 4.99 0.02 4.99 -2 6 C-2.66 5.34 -3.32 4.68 -4 4 C-2.68 2.68 -1.36 1.36 0 0 Z " fill="#FAD7D7" transform="translate(142,176)"/>
<path d="M0 0 C-0.33 0.99 -0.66 1.98 -1 3 C-3.31 2.67 -5.62 2.34 -8 2 C-4.77208445 -0.1519437 -3.71599191 -0.20086443 0 0 Z " fill="#ECD4D1" transform="translate(396,70)"/>
</svg>
